<?xml version="1.0" encoding="UTF-8"?>
<svg xmlns="http://www.w3.org/2000/svg" width="334.94" height="95.51" viewBox="0 0 334.94 95.51" role="img">
  <title>California Arts Council - 50th Years of Creative Impact</title>
  <g id="arts-ca-50th-logo" transform="translate(-12.79 -12.96)">
    <g id="Group_600" data-name="Group 600">
      <path id="Path_188" data-name="Path 188" d="M146.5,36.94,131.46,15.47a1.2,1.2,0,0,1,1.03-1.87h4.76a1.276,1.276,0,0,1,1.03.58l11.64,16.39,11.64-16.39a1.377,1.377,0,0,1,1.03-.58h4.82a1.2,1.2,0,0,1,1.03,1.87L153.2,36.88V57.39a1.266,1.266,0,0,1-1.22,1.22h-4.24a1.218,1.218,0,0,1-1.22-1.22V36.95Z" fill="#1588c9"></path>
      <path id="Path_189" data-name="Path 189" d="M180.06,14.83a1.218,1.218,0,0,1,1.22-1.22H207a1.218,1.218,0,0,1,1.22,1.22v3.6A1.218,1.218,0,0,1,207,19.65H186.69V32.76h17.16a1.266,1.266,0,0,1,1.22,1.22v3.6a1.218,1.218,0,0,1-1.22,1.22H186.69V52.62H207a1.218,1.218,0,0,1,1.22,1.22v3.54A1.218,1.218,0,0,1,207,58.6H181.28a1.218,1.218,0,0,1-1.22-1.22Z" fill="#1588c9"></path>
      <path id="Path_190" data-name="Path 190" d="M218.63,56.94l19.74-43.27a1.488,1.488,0,0,1,1.09-.71h.64a1.488,1.488,0,0,1,1.09.71L260.8,56.94a1.132,1.132,0,0,1-1.09,1.67h-4.05a1.506,1.506,0,0,1-1.48-.97l-3.99-8.81H229.17c-1.29,2.96-2.64,5.85-3.92,8.81a1.621,1.621,0,0,1-1.48.97h-4.05a1.131,1.131,0,0,1-1.09-1.67Zm29.12-13.63L239.84,25.7h-.32l-7.84,17.61Z" fill="#1588c9"></path>
      <path id="Path_191" data-name="Path 191" d="M272.52,14.83a1.218,1.218,0,0,1,1.22-1.22h17.49a13.872,13.872,0,0,1,14.01,13.76c0,5.91-3.92,10.8-9.52,13.05l8.81,16.33a1.212,1.212,0,0,1-1.09,1.86h-5.01a1.189,1.189,0,0,1-1.03-.58l-8.55-17.04h-9.71V57.38a1.266,1.266,0,0,1-1.22,1.22h-4.18a1.218,1.218,0,0,1-1.22-1.22V14.83Zm18.2,20.63a7.985,7.985,0,0,0,7.84-7.97,7.875,7.875,0,0,0-7.84-7.65H279.28V35.46Z" fill="#1588c9"></path>
      <path id="Path_192" data-name="Path 192" d="M317.57,52.11c.58-.84,1.09-1.8,1.67-2.64a1.455,1.455,0,0,1,2.19-.51c.39.32,5.34,4.44,10.29,4.44,4.44,0,7.26-2.7,7.26-5.98,0-3.86-3.34-6.3-9.71-8.94-6.56-2.76-11.7-6.17-11.7-13.63,0-5.01,3.86-11.89,14.08-11.89a21.758,21.758,0,0,1,11.89,3.79,1.537,1.537,0,0,1,.39,2.19c-.51.77-1.09,1.67-1.61,2.44a1.515,1.515,0,0,1-2.25.64c-.45-.26-4.95-3.21-8.68-3.21-5.4,0-7.26,3.41-7.26,5.79,0,3.66,2.83,5.91,8.16,8.1,7.46,3.02,13.82,6.56,13.82,14.4,0,6.69-5.98,12.15-14.34,12.15a20.793,20.793,0,0,1-13.82-5.08,1.356,1.356,0,0,1-.39-2.06Z" fill="#1588c9"></path>
    </g>
    <g id="Group_601" data-name="Group 601">
      <path id="Path_193" data-name="Path 193" d="M138.86,65.24a6.665,6.665,0,1,1-6.65,6.68A6.658,6.658,0,0,1,138.86,65.24Zm0,10.93a4.26,4.26,0,1,0-4.24-4.24A4.272,4.272,0,0,0,138.86,76.17Z" fill="#1588c9"></path>
      <path id="Path_194" data-name="Path 194" d="M149.68,65.78a.348.348,0,0,1,.35-.35h7.54a.354.354,0,0,1,.35.35V67.3a.348.348,0,0,1-.35.35h-5.48v3.48h4.57a.361.361,0,0,1,.35.35V73a.361.361,0,0,1-.35.35h-4.57v4.69a.361.361,0,0,1-.35.35h-1.7a.354.354,0,0,1-.35-.35V65.78Z" fill="#1588c9"></path>
      <path id="Path_195" data-name="Path 195" d="M173.67,65.24a6.262,6.262,0,0,1,4.48,1.72.342.342,0,0,1,.02.52l-1.13,1.17a.291.291,0,0,1-.46,0,4.347,4.347,0,0,0-2.85-1.09,4.3,4.3,0,0,0,.02,8.59,4.423,4.423,0,0,0,2.83-1.06.338.338,0,0,1,.46,0l1.15,1.19a.351.351,0,0,1-.02.5,6.367,6.367,0,0,1-4.5,1.8,6.665,6.665,0,1,1,0-13.33Z" fill="#1588c9"></path>
      <path id="Path_196" data-name="Path 196" d="M182.18,65.78a.348.348,0,0,1,.35-.35h5.3a4.016,4.016,0,0,1,4.04,3.98,4.092,4.092,0,0,1-2.74,3.74l2.54,4.7a.352.352,0,0,1-.31.54h-1.94a.315.315,0,0,1-.3-.17l-2.46-4.91H184.6v4.72a.361.361,0,0,1-.35.35h-1.7a.354.354,0,0,1-.35-.35V65.77Zm5.44,5.56a1.883,1.883,0,0,0,1.83-1.89,1.845,1.845,0,0,0-1.83-1.8H184.6v3.68h3.02Z" fill="#1588c9"></path>
      <path id="Path_197" data-name="Path 197" d="M196.2,65.78a.348.348,0,0,1,.35-.35h7.54a.354.354,0,0,1,.35.35V67.3a.348.348,0,0,1-.35.35h-5.48v3.04h4.57a.361.361,0,0,1,.35.35v1.54a.354.354,0,0,1-.35.35h-4.57v3.24h5.48a.354.354,0,0,1,.35.35v1.52a.348.348,0,0,1-.35.35h-7.54a.354.354,0,0,1-.35-.35V65.78Z" fill="#1588c9"></path>
      <path id="Path_198" data-name="Path 198" d="M207.5,77.91l5.76-12.46a.336.336,0,0,1,.31-.2h.19a.3.3,0,0,1,.31.2l5.7,12.46a.326.326,0,0,1-.31.48h-1.61a.533.533,0,0,1-.54-.37l-.91-2h-5.54l-.91,2a.548.548,0,0,1-.54.37H207.8a.321.321,0,0,1-.31-.48Zm8-3.94-1.85-4.07h-.06l-1.81,4.07Z" fill="#1588c9"></path>
      <path id="Path_199" data-name="Path 199" d="M224.06,67.65h-2.83a.354.354,0,0,1-.35-.35V65.78a.348.348,0,0,1,.35-.35h8.09a.354.354,0,0,1,.35.35V67.3a.348.348,0,0,1-.35.35h-2.83V78.04a.361.361,0,0,1-.35.35h-1.72a.361.361,0,0,1-.35-.35V67.65Z" fill="#1588c9"></path>
      <path id="Path_200" data-name="Path 200" d="M233.19,65.78a.361.361,0,0,1,.35-.35h1.72a.361.361,0,0,1,.35.35V78.04a.361.361,0,0,1-.35.35h-1.72a.361.361,0,0,1-.35-.35Z" fill="#1588c9"></path>
      <path id="Path_201" data-name="Path 201" d="M239.02,65.91a.326.326,0,0,1,.31-.48h1.89a.323.323,0,0,1,.31.2l3.56,7.96h.13l3.56-7.96a.346.346,0,0,1,.31-.2h1.89a.321.321,0,0,1,.31.48l-5.74,12.46a.336.336,0,0,1-.31.2h-.19a.316.316,0,0,1-.31-.2l-5.72-12.46Z" fill="#1588c9"></path>
      <path id="Path_202" data-name="Path 202" d="M254.72,65.78a.348.348,0,0,1,.35-.35h7.54a.354.354,0,0,1,.35.35V67.3a.348.348,0,0,1-.35.35h-5.48v3.04h4.57a.361.361,0,0,1,.35.35v1.54a.354.354,0,0,1-.35.35h-4.57v3.24h5.48a.354.354,0,0,1,.35.35v1.52a.348.348,0,0,1-.35.35h-7.54a.354.354,0,0,1-.35-.35V65.78Z" fill="#1588c9"></path>
      <path id="Path_203" data-name="Path 203" d="M273.41,65.78a.361.361,0,0,1,.35-.35h1.72a.361.361,0,0,1,.35.35V78.04a.361.361,0,0,1-.35.35h-1.72a.361.361,0,0,1-.35-.35Z" fill="#1588c9"></path>
      <path id="Path_204" data-name="Path 204" d="M282.18,65.52a.313.313,0,0,1,.33-.28h.3a.314.314,0,0,1,.31.19l4.07,8.74h.06l4.08-8.74a.328.328,0,0,1,.31-.19h.3a.313.313,0,0,1,.33.28l2.19,12.45a.321.321,0,0,1-.33.43h-1.69a.4.4,0,0,1-.35-.28L291,71.1h-.06l-3.24,7.28a.316.316,0,0,1-.31.2h-.33a.316.316,0,0,1-.31-.2l-3.28-7.28h-.06l-1.07,7.02a.364.364,0,0,1-.33.28h-1.67a.34.34,0,0,1-.35-.43l2.2-12.45Z" fill="#1588c9"></path>
      <path id="Path_205" data-name="Path 205" d="M298.66,65.78a.348.348,0,0,1,.35-.35h4.35a4.14,4.14,0,0,1,4.15,4.09,4.205,4.205,0,0,1-4.13,4.17h-2.31v4.35a.361.361,0,0,1-.35.35h-1.7a.354.354,0,0,1-.35-.35V65.78Zm4.55,5.65a1.908,1.908,0,0,0,1.91-1.93,1.85,1.85,0,0,0-1.91-1.8h-2.15v3.72h2.15Z" fill="#1588c9"></path>
      <path id="Path_206" data-name="Path 206" d="M308.71,77.91l5.76-12.46a.336.336,0,0,1,.31-.2h.19a.3.3,0,0,1,.31.2l5.71,12.46a.326.326,0,0,1-.31.48h-1.61a.533.533,0,0,1-.54-.37l-.91-2h-5.54l-.91,2a.548.548,0,0,1-.54.37h-1.61A.321.321,0,0,1,308.71,77.91Zm8-3.94-1.85-4.07h-.06l-1.82,4.07h3.72Z" fill="#1588c9"></path>
      <path id="Path_207" data-name="Path 207" d="M329.65,65.24a6.263,6.263,0,0,1,4.48,1.72.342.342,0,0,1,.02.52l-1.13,1.17a.291.291,0,0,1-.46,0,4.367,4.367,0,0,0-2.85-1.09,4.3,4.3,0,0,0,.02,8.59,4.423,4.423,0,0,0,2.83-1.06.338.338,0,0,1,.46,0l1.15,1.19a.351.351,0,0,1-.02.5,6.367,6.367,0,0,1-4.5,1.8,6.665,6.665,0,1,1,0-13.33Z" fill="#1588c9"></path>
      <path id="Path_208" data-name="Path 208" d="M340.45,67.65h-2.83a.354.354,0,0,1-.35-.35V65.78a.348.348,0,0,1,.35-.35h8.09a.354.354,0,0,1,.35.35V67.3a.348.348,0,0,1-.35.35h-2.83V78.04a.361.361,0,0,1-.35.35h-1.72a.361.361,0,0,1-.35-.35V67.65Z" fill="#1588c9"></path>
    </g>
    <g id="Group_605" data-name="Group 605">
      <g id="Group_604" data-name="Group 604">
        <g id="Group_603" data-name="Group 603">
          <path id="Path_209" data-name="Path 209" d="M90.69,19.84a25.64,25.64,0,1,0,25.64,25.64A25.666,25.666,0,0,0,90.69,19.84Z" fill="none"></path>
          <g id="Group_602" data-name="Group 602">
            <path id="Path_210" data-name="Path 210" d="M108.77,53.12a.144.144,0,0,1,.03.02,19.9,19.9,0,0,0,1.51-7.61h0a19.643,19.643,0,0,1-1.53,7.6Z" fill="#e7272a"></path>
            <path id="Path_211" data-name="Path 211" d="M71.16,44.43c0-.11.02-.23.03-.34C71.19,44.2,71.17,44.32,71.16,44.43Z" fill="#92c841"></path>
            <path id="Path_212" data-name="Path 212" d="M71.39,42.38c.04-.23.08-.45.12-.68C71.47,41.93,71.42,42.15,71.39,42.38Z" fill="#92c841"></path>
            <path id="Path_213" data-name="Path 213" d="M71.22,47.32l-.03-.42C71.19,47.04,71.21,47.18,71.22,47.32Z" fill="#92c841"></path>
            <path id="Path_214" data-name="Path 214" d="M74.85,57.12l-.03-.18a19.575,19.575,0,0,1-3.24-7.28A19.963,19.963,0,0,0,74.85,57.12Z" fill="#92c841"></path>
            <path id="Path_215" data-name="Path 215" d="M71.48,49.19c-.04-.22-.09-.45-.12-.68C71.39,48.74,71.44,48.96,71.48,49.19Z" fill="#92c841"></path>
            <path id="Path_216" data-name="Path 216" d="M71.13,45.52v0Z" fill="#92c841"></path>
            <path id="Path_217" data-name="Path 217" d="M71.25,43.37c.02-.17.04-.34.07-.52C71.3,43.02,71.27,43.19,71.25,43.37Z" fill="#92c841"></path>
            <path id="Path_218" data-name="Path 218" d="M71.58,49.66c-.03-.15-.06-.31-.09-.46C71.52,49.36,71.55,49.51,71.58,49.66Z" fill="#242433"></path>
            <path id="Path_219" data-name="Path 219" d="M71.36,48.51c-.06-.39-.11-.79-.14-1.19C71.26,47.72,71.3,48.12,71.36,48.51Z" fill="#242433"></path>
            <path id="Path_220" data-name="Path 220" d="M71.19,46.9c-.03-.45-.05-.9-.05-1.35C71.14,46,71.16,46.45,71.19,46.9Z" fill="#242433"></path>
            <path id="Path_221" data-name="Path 221" d="M71.19,44.08c.02-.24.04-.47.06-.71C71.22,43.61,71.21,43.84,71.19,44.08Z" fill="#242433"></path>
            <path id="Path_222" data-name="Path 222" d="M71.13,45.51h0c0-.37.01-.73.03-1.09q-.03.54-.03,1.08Z" fill="#242433"></path>
            <path id="Path_223" data-name="Path 223" d="M110.3,45.51a18.73,18.73,0,0,0-.1-2,19.052,19.052,0,0,1,.1,2.01h0Z" fill="#242433"></path>
            <path id="Path_224" data-name="Path 224" d="M71.51,41.7c.02-.08.03-.16.05-.24C71.54,41.54,71.53,41.62,71.51,41.7Z" fill="#242433"></path>
            <path id="Path_225" data-name="Path 225" d="M71.32,42.86c.02-.16.04-.32.07-.48C71.36,42.54,71.34,42.7,71.32,42.86Z" fill="#242433"></path>
            <path id="Path_226" data-name="Path 226" d="M110.2,43.51A19.583,19.583,0,0,0,80.78,28.64c1.12.76,2.67,1.81,2.69,1.82,6.44,4.21,10.62,9.41,12.17,15.08,1.91.64,8.69,3.5,13.14,7.58a19.425,19.425,0,0,0,1.53-7.6,19.052,19.052,0,0,0-.1-2.01Z" fill="#e7272a"></path>
            <path id="Path_227" data-name="Path 227" d="M94.22,47.61a19.188,19.188,0,0,0-7.73-.38,9.94,9.94,0,0,1-3.01,7.36c-2.44,2.39-5.79,3.33-7.69,3l-.56-.1a19.527,19.527,0,0,0,14.09,7.54c3.07-4.35,6.13-10.65,4.9-17.43Z" fill="#1689ca"></path>
            <path id="Path_228" data-name="Path 228" d="M82.36,32.34a61.423,61.423,0,0,1,3.87,12.3,21.485,21.485,0,0,1,7.22.13C91.4,39.2,86.69,35.1,82.36,32.34Z" fill="#7dcef3"></path>
            <path id="Path_229" data-name="Path 229" d="M82.69,45.49c.34-.11.68-.21,1.01-.31a56.9,56.9,0,0,0-5.23-14.96,19.569,19.569,0,0,0-6.92,11.23c-.02.08-.03.16-.05.24-.04.23-.08.45-.12.68-.03.16-.05.32-.07.48s-.05.34-.07.52c-.03.24-.04.47-.06.71,0,.11-.02.23-.03.34-.02.36-.03.73-.03,1.09v.03c0,.45.02.9.05,1.35,0,.14.02.28.03.42.04.4.08.8.14,1.19.04.23.08.45.12.68.03.16.06.31.09.46a19.647,19.647,0,0,0,3.24,7.28l-.07-.39c-.01-.08-1.28-8.03,7.95-11.05Z" fill="#92c841"></path>
            <path id="Path_230" data-name="Path 230" d="M77.25,55.01a8.529,8.529,0,0,0,4.43-2.27,7.236,7.236,0,0,0,2.21-4.92c-.13.04-.26.08-.4.12-5.3,1.74-6.17,5.27-6.25,7.06Z" fill="#7dcef3"></path>
            <path id="Path_231" data-name="Path 231" d="M92.48,65.01a19.561,19.561,0,0,0,15.08-9.51,50.921,50.921,0,0,0-10.59-6.97c.58,5.28-.95,10.93-4.49,16.48Z" fill="#faa41f"></path>
          </g>
        </g>
        <path id="Path_232" data-name="Path 232" d="M90.69,19.84a25.64,25.64,0,1,0,25.64,25.64A25.666,25.666,0,0,0,90.69,19.84Z" fill="none"></path>
      </g>
      <path id="Path_233" data-name="Path 233" d="M90.69,19.84a25.64,25.64,0,1,0,25.64,25.64A25.666,25.666,0,0,0,90.69,19.84Z" fill="none"></path>
      <path id="Path_234" data-name="Path 234" d="M90.69,19.84a25.64,25.64,0,1,0,25.64,25.64A25.666,25.666,0,0,0,90.69,19.84Z" fill="none"></path>
      <path id="Path_235" data-name="Path 235" d="M90.69,12.96H19.85l-1.53,6.89-4.01,18.1-1.52,6.86H39.01A7.19,7.19,0,1,1,31.82,52c0-.1.01-.21.02-.31H24.96c0,.1-.01.21-.01.31A14.06,14.06,0,1,0,39.01,37.94H21.67l4.01-18.08h3.4v-.02H70.73A32.633,32.633,0,0,0,59.58,36.03a26,26,0,0,0-20.57-10.1H29.45L27.87,32.8H39.01A19.16,19.16,0,1,1,19.85,51.96v-.27H12.8v.48A26.14,26.14,0,0,0,62.89,62.33a32.515,32.515,0,1,0,27.8-49.37Zm0,58.17a25.64,25.64,0,1,1,25.64-25.64A25.666,25.666,0,0,1,90.69,71.13Z" fill="#1588c9"></path>
    </g>
    <path id="Path_236" data-name="Path 236" d="M17.24,98.91a2.479,2.479,0,0,1,1.64.62.2.2,0,0,0,.3,0l.95-.98a.223.223,0,0,0-.01-.34,4.109,4.109,0,0,0-2.94-1.13,4.375,4.375,0,1,0,0,8.75,4.166,4.166,0,0,0,2.95-1.18.245.245,0,0,0,.01-.33l-.95-1.01a.255.255,0,0,0-.32-.01,2.56,2.56,0,0,1-1.63.58,2.487,2.487,0,0,1-.01-4.97Z" fill="#1588c9"></path>
    <path id="Path_237" data-name="Path 237" d="M26.63,97.21a.253.253,0,0,0-.21-.13H26.3a.267.267,0,0,0-.21.13l-3.8,8.18a.217.217,0,0,0,.21.32h1.34a.465.465,0,0,0,.44-.29l.44-.97h3.31l.44.96c.11.23.21.3.42.3h1.35a.22.22,0,0,0,.21-.32l-3.8-8.18Zm-1.19,5.57.91-2h.01l.92,2H25.43Z" fill="#1588c9"></path>
    <path id="Path_238" data-name="Path 238" d="M38.02,103.91H35.13V97.42a.24.24,0,0,0-.23-.23H33.45a.233.233,0,0,0-.23.23v8.04a.233.233,0,0,0,.23.23h4.57a.233.233,0,0,0,.23-.23v-1.32A.233.233,0,0,0,38.02,103.91Z" fill="#1588c9"></path>
    <rect id="Rectangle_615" data-name="Rectangle 615" width="1.92" height="8.51" rx="0.23" transform="translate(41.22 97.19)" fill="#1588c9"></rect>
    <path id="Path_239" data-name="Path 239" d="M52.29,97.19H47.26a.233.233,0,0,0-.23.23v8.04a.233.233,0,0,0,.23.23h1.43a.24.24,0,0,0,.23-.23v-2.95h2.77a.24.24,0,0,0,.23-.23v-1.32a.24.24,0,0,0-.23-.23H48.92V98.98h3.37a.233.233,0,0,0,.23-.23V97.43a.233.233,0,0,0-.23-.23Z" fill="#1588c9"></path>
    <path id="Path_240" data-name="Path 240" d="M59.4,97.07a4.375,4.375,0,1,0,4.37,4.39A4.358,4.358,0,0,0,59.4,97.07Zm0,6.81a2.43,2.43,0,1,1,2.43-2.42A2.435,2.435,0,0,1,59.4,103.88Z" fill="#1588c9"></path>
    <path id="Path_241" data-name="Path 241" d="M73.55,99.82A2.635,2.635,0,0,0,70.9,97.2H67.27a.233.233,0,0,0-.23.23v8.04a.233.233,0,0,0,.23.23h1.45a.24.24,0,0,0,.23-.23v-3.1h.84l1.62,3.22s.1.11.19.11h1.62a.23.23,0,0,0,.21-.35l-1.66-3.09a2.653,2.653,0,0,0,1.8-2.44Zm-2.8,1.01h-1.8v-1.9h1.8a.924.924,0,0,1,.92.92.968.968,0,0,1-.92.97Z" fill="#1588c9"></path>
    <path id="Path_242" data-name="Path 242" d="M84.05,97.19H82.59a.233.233,0,0,0-.23.23v4.31h-.01L77.5,97.06h-.3a.231.231,0,0,0-.23.22v8.18a.257.257,0,0,0,.24.23h1.45a.233.233,0,0,0,.23-.23v-4.53h.01l4.8,4.82a.677.677,0,0,0,.16.06h.19a.231.231,0,0,0,.23-.22V97.41a.24.24,0,0,0-.23-.23Z" fill="#1588c9"></path>
    <rect id="Rectangle_616" data-name="Rectangle 616" width="1.92" height="8.51" rx="0.23" transform="translate(88.16 97.19)" fill="#1588c9"></rect>
    <path id="Path_243" data-name="Path 243" d="M97.21,97.21a.253.253,0,0,0-.21-.13h-.12a.267.267,0,0,0-.21.13l-3.8,8.18a.217.217,0,0,0,.21.32h1.34a.465.465,0,0,0,.44-.29l.44-.97h3.31l.44.96c.11.23.21.3.42.3h1.35a.22.22,0,0,0,.21-.32l-3.8-8.18Zm-1.19,5.57.91-2h.01l.92,2H96.01Z" fill="#1588c9"></path>
    <path id="Path_244" data-name="Path 244" d="M111.53,97.21a.253.253,0,0,0-.21-.13h-.12a.267.267,0,0,0-.21.13l-3.8,8.18a.217.217,0,0,0,.21.32h1.34a.465.465,0,0,0,.44-.29l.44-.97h3.31l.44.96c.11.23.21.3.42.3h1.35a.22.22,0,0,0,.21-.32l-3.8-8.18Zm-1.19,5.57.91-2h.01l.92,2h-1.85Z" fill="#1588c9"></path>
    <path id="Path_245" data-name="Path 245" d="M124.63,99.82a2.635,2.635,0,0,0-2.65-2.62h-3.63a.233.233,0,0,0-.23.23v8.04a.233.233,0,0,0,.23.23h1.45a.24.24,0,0,0,.23-.23v-3.1h.84l1.62,3.22s.1.11.19.11h1.62a.23.23,0,0,0,.21-.35l-1.66-3.09a2.653,2.653,0,0,0,1.8-2.44Zm-2.8,1.01h-1.8v-1.9h1.8a.924.924,0,0,1,.92.92.976.976,0,0,1-.92.97Z" fill="#1588c9"></path>
    <path id="Path_246" data-name="Path 246" d="M132.81,97.19h-5.39a.233.233,0,0,0-.23.23v1.32a.233.233,0,0,0,.23.23h1.74v6.49a.24.24,0,0,0,.23.23h1.46a.24.24,0,0,0,.23-.23V98.97h1.74a.233.233,0,0,0,.23-.23V97.42a.233.233,0,0,0-.23-.23Z" fill="#1588c9"></path>
    <path id="Path_247" data-name="Path 247" d="M138.77,100.54c-.96-.39-1.32-.73-1.32-1.18a.707.707,0,0,1,.77-.62,3.835,3.835,0,0,1,1.74.73c.11.09.33-.02.41-.16l.62-.94a.316.316,0,0,0-.07-.39,4.528,4.528,0,0,0-2.6-.91,2.522,2.522,0,0,0-2.81,2.42c0,1.46,1.31,2.27,2.36,2.69.83.33,1.25.72,1.25,1.23a.765.765,0,0,1-.84.73,3.607,3.607,0,0,1-1.73-.67.318.318,0,0,0-.41.07l-.57,1.01c-.1.17-.06.22.06.34a3.839,3.839,0,0,0,2.73.94,2.668,2.668,0,0,0,2.87-2.52c0-1.65-1.51-2.39-2.45-2.77Z" fill="#1588c9"></path>
    <path id="Path_248" data-name="Path 248" d="M152.81,98.91a2.479,2.479,0,0,1,1.64.62.2.2,0,0,0,.3,0l.95-.98a.223.223,0,0,0-.01-.34,4.109,4.109,0,0,0-2.94-1.13,4.375,4.375,0,1,0,0,8.75,4.166,4.166,0,0,0,2.95-1.18.235.235,0,0,0,.01-.33l-.95-1.01a.255.255,0,0,0-.32-.01,2.56,2.56,0,0,1-1.63.58,2.487,2.487,0,0,1-.01-4.97Z" fill="#1588c9"></path>
    <path id="Path_249" data-name="Path 249" d="M162.66,97.07a4.375,4.375,0,1,0,4.37,4.39A4.358,4.358,0,0,0,162.66,97.07Zm0,6.81a2.43,2.43,0,1,1,2.43-2.42A2.435,2.435,0,0,1,162.66,103.88Z" fill="#1588c9"></path>
    <path id="Path_250" data-name="Path 250" d="M176.87,97.19h-1.49a.233.233,0,0,0-.23.23v4.92a1.5,1.5,0,0,1-1.52,1.53,1.472,1.472,0,0,1-1.49-1.53V97.42a.233.233,0,0,0-.23-.23h-1.5a.24.24,0,0,0-.23.23v5.02a3.466,3.466,0,0,0,6.93,0V97.42a.24.24,0,0,0-.23-.23Z" fill="#1588c9"></path>
    <path id="Path_251" data-name="Path 251" d="M187.92,97.19h-1.46a.233.233,0,0,0-.23.23v4.31h-.01l-4.85-4.67h-.3a.231.231,0,0,0-.23.22v8.18a.257.257,0,0,0,.24.23h1.45a.233.233,0,0,0,.23-.23v-4.53h.01l4.8,4.82a.677.677,0,0,0,.16.06h.19a.231.231,0,0,0,.23-.22V97.41a.24.24,0,0,0-.23-.23Z" fill="#1588c9"></path>
    <path id="Path_252" data-name="Path 252" d="M195.86,98.91a2.479,2.479,0,0,1,1.64.62.2.2,0,0,0,.3,0l.95-.98a.223.223,0,0,0-.01-.34,4.109,4.109,0,0,0-2.94-1.13,4.375,4.375,0,1,0,0,8.75,4.166,4.166,0,0,0,2.95-1.18.235.235,0,0,0,.01-.33l-.95-1.01a.255.255,0,0,0-.32-.01,2.56,2.56,0,0,1-1.63.58,2.487,2.487,0,0,1-.01-4.97Z" fill="#1588c9"></path>
    <rect id="Rectangle_617" data-name="Rectangle 617" width="1.92" height="8.51" rx="0.23" transform="translate(202 97.19)" fill="#1588c9"></rect>
    <path id="Path_253" data-name="Path 253" d="M212.61,103.91h-2.89V97.42a.24.24,0,0,0-.23-.23h-1.45a.233.233,0,0,0-.23.23v8.04a.233.233,0,0,0,.23.23h4.57a.233.233,0,0,0,.23-.23v-1.32a.233.233,0,0,0-.23-.23Z" fill="#1588c9"></path>
    <path id="Path_254" data-name="Path 254" d="M232.84,97.04a.583.583,0,0,0-.53-.33h-.12a.593.593,0,0,0-.54.35l-3.69,8.18a.577.577,0,0,0,.53.83h.49a.593.593,0,0,0,.54-.35l.79-1.79h3.84l.8,1.78a.585.585,0,0,0,.54.36h.49a.585.585,0,0,0,.5-.26.56.56,0,0,0,.03-.56l-3.68-8.19Zm-1.87,5.41,1.27-2.85c.2.45.4.91.6,1.36.22.5.44.99.66,1.49h-2.53Z" fill="#1588c9"></path>
    <path id="Path_255" data-name="Path 255" d="M245.95,100.6c-1.02-.42-1.42-.81-1.42-1.38,0-.36.28-.97,1.32-.97a2.731,2.731,0,0,1,1.41.51.64.64,0,0,0,.91-.23l.15-.24a.654.654,0,0,0,.09-.55.58.58,0,0,0-.27-.36,4.3,4.3,0,0,0-2.28-.68,2.66,2.66,0,0,0-2.95,2.52c0,1.68,1.12,2.3,2.36,2.85,1.41.59,1.9,1,1.9,1.59s-.55.98-1.27.98a2.935,2.935,0,0,1-1.82-.84.59.59,0,0,0-.45-.16.775.775,0,0,0-.49.31l-.21.26a.606.606,0,0,0,.13.87,4.337,4.337,0,0,0,2.81,1.08,2.77,2.77,0,0,0,2.99-2.55c0-1.7-1.38-2.4-2.92-3.03Z" fill="#1588c9"></path>
    <path id="Path_256" data-name="Path 256" d="M256.3,96.83h-5.15a.591.591,0,0,0-.59.59v.35a.591.591,0,0,0,.59.59h1.75v7.1a.6.6,0,0,0,.59.59h.46a.6.6,0,0,0,.59-.59v-7.1h1.75a.591.591,0,0,0,.59-.59v-.35a.591.591,0,0,0-.59-.59Z" fill="#1588c9"></path>
    <path id="Path_257" data-name="Path 257" d="M262.59,97.04a.583.583,0,0,0-.53-.33h-.12a.593.593,0,0,0-.54.35l-3.69,8.18a.583.583,0,0,0,.03.56.574.574,0,0,0,.5.26h.49a.581.581,0,0,0,.54-.35l.79-1.79h3.84l.8,1.78a.585.585,0,0,0,.54.36h.49a.585.585,0,0,0,.5-.26.561.561,0,0,0,.03-.56l-3.68-8.19Zm-1.87,5.41,1.27-2.85c.2.45.4.91.6,1.36.22.5.44.99.66,1.49Z" fill="#1588c9"></path>
    <path id="Path_258" data-name="Path 258" d="M272.82,96.83h-5.15a.591.591,0,0,0-.59.59v.35a.591.591,0,0,0,.59.59h1.75v7.1a.6.6,0,0,0,.59.59h.46a.6.6,0,0,0,.59-.59v-7.1h1.75a.591.591,0,0,0,.59-.59v-.35a.585.585,0,0,0-.59-.59Z" fill="#1588c9"></path>
    <path id="Path_259" data-name="Path 259" d="M281.2,96.83h-4.79a.591.591,0,0,0-.59.59v8.04a.591.591,0,0,0,.59.59h4.79a.591.591,0,0,0,.59-.59v-.35a.591.591,0,0,0-.59-.59h-3.72v-2.38h3.12a.591.591,0,0,0,.59-.59v-.35a.6.6,0,0,0-.59-.59h-3.12V98.37h3.72a.591.591,0,0,0,.59-.59v-.35a.591.591,0,0,0-.59-.59Z" fill="#1588c9"></path>
    <path id="Path_260" data-name="Path 260" d="M293.05,97.05a.581.581,0,0,0-.53-.34h-.12a.583.583,0,0,0-.54.35l-3.69,8.18a.583.583,0,0,0,.03.56.574.574,0,0,0,.5.26h.49a.581.581,0,0,0,.54-.35l.79-1.79h3.84l.8,1.78a.585.585,0,0,0,.54.36h.49a.585.585,0,0,0,.5-.26.561.561,0,0,0,.03-.56l-3.68-8.19Zm-1.87,5.4,1.27-2.85c.2.45.4.91.6,1.36.22.5.44.99.66,1.49Z" fill="#1588c9"></path>
    <path id="Path_261" data-name="Path 261" d="M306.11,101.45h-2.1a.585.585,0,0,0-.59.59v.45a.583.583,0,0,0,.59.58h1.04v1.12a4.616,4.616,0,0,1-1.83.37,3.092,3.092,0,0,1-3.02-3.15,3.059,3.059,0,0,1,3.02-3.12,3.354,3.354,0,0,1,2.07.85.666.666,0,0,0,.44.19.632.632,0,0,0,.39-.2c.06-.07.14-.14.21-.21l.12-.11a.584.584,0,0,0,.17-.41.67.67,0,0,0-.21-.46,4.634,4.634,0,0,0-3.17-1.22,4.735,4.735,0,1,0,0,9.47,6.354,6.354,0,0,0,3.21-.87.656.656,0,0,0,.25-.49v-2.78a.583.583,0,0,0-.58-.59Z" fill="#1588c9"></path>
    <path id="Path_262" data-name="Path 262" d="M315.17,96.83h-4.79a.591.591,0,0,0-.59.59v8.04a.591.591,0,0,0,.59.59h4.79a.591.591,0,0,0,.59-.59v-.35a.591.591,0,0,0-.59-.59h-3.72v-2.38h3.13a.591.591,0,0,0,.59-.59v-.35a.6.6,0,0,0-.59-.59h-3.13V98.37h3.72a.591.591,0,0,0,.59-.59v-.35a.591.591,0,0,0-.59-.59Z" fill="#1588c9"></path>
    <path id="Path_263" data-name="Path 263" d="M325.84,96.83h-.43a.591.591,0,0,0-.59.59v5.48l-4.97-6.19h-.48a.583.583,0,0,0-.59.58v8.18a.6.6,0,0,0,.59.59h.42a.591.591,0,0,0,.59-.59V99.88l5.05,6.31h.39a.583.583,0,0,0,.59-.58V97.43a.6.6,0,0,0-.59-.59Z" fill="#1588c9"></path>
    <path id="Path_264" data-name="Path 264" d="M336.9,103.68a.589.589,0,0,0-.71.05,3.174,3.174,0,0,1-2.1.84,3.132,3.132,0,0,1,0-6.26,3.3,3.3,0,0,1,2.06.8.652.652,0,0,0,.46.21.481.481,0,0,0,.37-.19l.33-.33a.608.608,0,0,0-.03-.87,4.634,4.634,0,0,0-3.17-1.22,4.735,4.735,0,1,0,0,9.47,4.5,4.5,0,0,0,3.21-1.29.655.655,0,0,0,.18-.48.489.489,0,0,0-.18-.37l-.41-.36Z" fill="#1588c9"></path>
    <path id="Path_265" data-name="Path 265" d="M346.66,97.13a.577.577,0,0,0-.52-.3h-.57a.621.621,0,0,0-.49.26l-2.16,2.99-2.16-2.99a.618.618,0,0,0-.48-.26h-.57a.577.577,0,0,0-.52.3.622.622,0,0,0,.03.63l2.86,3.96v3.75a.591.591,0,0,0,.59.59h.47a.6.6,0,0,0,.59-.59v-3.76l2.91-3.98a.612.612,0,0,0,.02-.6Z" fill="#1588c9"></path>
    <rect id="Rectangle_618" data-name="Rectangle 618" width="0.66" height="13.73" transform="translate(220.49 94.74)" fill="#1588c9"></rect>
    <rect id="Rectangle_619" data-name="Rectangle 619" width="334.94" height="1.31" transform="translate(12.79 87.64)" fill="#1588c9"></rect>
  </g>
</svg>
