<svg version="1.1" xmlns="http://www.w3.org/2000/svg" xmlns:xlink="http://www.w3.org/1999/xlink" width="483.15122" height="296.70541" viewBox="0,0,483.15122,296.70541"><defs><linearGradient x1="413.44391" y1="145.83938" x2="413.44391" y2="311.6857" gradientUnits="userSpaceOnUse" id="color-1"><stop offset="0" stop-color="#ff9400"/><stop offset="1" stop-color="#ffde00"/></linearGradient><linearGradient x1="430.64773" y1="215.5037" x2="430.64773" y2="328.35271" gradientUnits="userSpaceOnUse" id="color-2"><stop offset="0" stop-color="#28c9cc"/><stop offset="1" stop-color="#37b1b3"/></linearGradient></defs><g transform="translate(1.57561,-31.6473)"><g data-paper-data="{&quot;isPaintingLayer&quot;:true}" fill-rule="nonzero" stroke="none" stroke-width="1" stroke-linecap="butt" stroke-linejoin="miter" stroke-miterlimit="10" stroke-dasharray="" stroke-dashoffset="0" style="mix-blend-mode: normal"><path d="M153.39734,32.54768c2.19664,1.97698 0.65899,5.98584 -2.69089,6.97433c-1.53765,0.49424 -4.33837,-0.93357 -4.83261,-2.36138c-0.49425,-1.59257 0.21967,-3.84412 1.53765,-4.72277c1.53765,-1.09832 4.72278,-1.04341 5.98585,0.10983z" fill="#35414c"/><path d="M268.28161,32.16327c2.52614,0.93357 1.3729,4.11869 -1.42782,3.7892c-2.96546,-0.3295 -4.33837,1.0434 -5.10719,5.10719c-0.43933,2.19664 0.27458,3.02038 2.7458,3.29496c1.42782,0.16475 1.64748,0.38441 1.64748,1.81223c0,1.53765 -0.16474,1.64748 -2.30647,1.97697c-1.31799,0.16475 -2.52613,0.43933 -2.69088,0.65899c-0.21967,0.16475 -1.04341,5.93093 -1.92206,12.79543c-1.81223,14.60766 -2.47122,16.96904 -5.4916,19.71484c-3.24005,2.91055 -6.69975,3.84412 -9.33572,2.47122c-2.14173,-1.15323 -0.38441,-4.22853 2.08681,-3.56954c0.82374,0.16475 1.86714,0.00001 2.63596,-0.49424c1.70239,-1.15323 1.97698,-2.47122 4.39328,-23.11963c0.82374,-7.02925 0.82374,-7.13908 -0.27458,-8.07265c-1.48273,-1.20815 -1.3729,-2.41631 0.27458,-3.51463c0.87866,-0.54916 1.7024,-1.97697 2.30647,-3.95395c1.20815,-3.73429 4.55803,-7.5784 7.57841,-8.62181c2.69088,-0.93357 3.13021,-0.98849 4.88752,-0.27458z" fill="#35414c"/><path d="M39.50156,33.3165c2.63597,-0.05492 2.91055,0.05492 3.45971,1.42782c0.3295,0.87866 0.49424,3.56954 0.3295,6.37026c-0.27458,5.54652 0.05492,6.04076 3.13022,4.55803c1.15324,-0.54916 3.29496,-0.87866 5.54652,-0.87866c3.29496,0 3.78921,0.16474 5.21702,1.53764c2.19664,2.25156 2.7458,4.83261 2.7458,13.39951c0,6.69975 0.10983,7.68824 1.0434,8.62181c0.54916,0.54916 1.31798,1.09832 1.75731,1.26307c0.38441,0.10983 0.54916,0.60407 0.32949,1.15323c-0.27458,0.82374 -1.20815,0.93357 -6.26042,0.93357c-7.52349,0 -8.34723,-0.43932 -5.43668,-2.91054l2.14172,-1.81223l-0.38441,-7.02925c-0.38441,-7.13908 -1.09832,-9.77505 -2.80071,-10.43404c-1.75731,-0.65899 -4.55803,-0.3295 -5.76618,0.65899c-1.20815,0.98849 -1.26307,1.31799 -1.20815,9.17097c0.05492,7.52349 0.16475,8.2374 1.26307,9.39063c2.25156,2.36139 1.20815,2.96546 -5.27193,2.96546c-4.83261,0 -5.87602,-0.16475 -6.1506,-0.87866c-0.21966,-0.54916 0,-1.09832 0.54916,-1.3729c2.58105,-1.48273 2.58105,-1.42781 2.58105,-16.41988v-14.22324l-1.64748,-1.15324c-2.19664,-1.59257 -2.14173,-3.13021 0.16474,-3.78921c0.93357,-0.27458 3.0753,-0.54916 4.66786,-0.54916z" fill="#35414c"/><path d="M134.12183,34.90907c4.22853,0.82374 4.99735,1.81223 4.50311,5.43668c-0.71391,4.77769 -3.13021,5.27193 -5.21702,1.09832c-1.59257,-3.13021 -5.98584,-4.1187 -10.15946,-2.4163c-2.7458,1.15324 -3.84412,2.25155 -5.54652,5.4916c-1.31798,2.47122 -1.48273,3.34988 -1.42781,8.51198c0,4.77769 0.21966,6.20551 1.20815,8.51198c2.30647,5.10719 5.54652,7.41366 10.2693,7.41366c3.34988,0 5.54652,-1.20815 6.75467,-3.73428c0.76882,-1.7024 1.20816,-2.03189 2.58105,-2.03189c1.59257,0 1.64748,0.05492 1.81223,3.13022c0.21966,3.84412 -0.38441,4.33836 -6.75467,5.65635c-5.71126,1.15323 -10.15946,0.71391 -14.55274,-1.42782c-3.73429,-1.92206 -5.65635,-3.89903 -7.63332,-8.18248c-1.92206,-4.1187 -1.97698,-10.87336 -0.16475,-15.4314c2.30647,-5.76618 7.13909,-10.04962 13.28968,-11.6971c3.62445,-0.98849 7.08417,-1.09832 11.03812,-0.3295z" fill="#35414c"/><path d="M0.07187,34.90907l14.66257,0.10983l14.71749,0.16475v3.84412c0,3.56954 -0.10984,3.84412 -1.20816,4.00887c-0.93357,0.16475 -1.42781,-0.27458 -2.19664,-1.92206c-0.87865,-1.86715 -1.26307,-2.14173 -3.4597,-2.41631c-4.61294,-0.65899 -4.4482,-1.20815 -4.28345,14.71749c0.16475,11.86185 0.27458,14.11341 0.98849,14.44291c3.34988,1.53765 4.1187,2.08681 4.1187,2.7458c0,0.71391 -1.42781,0.82374 -8.78656,0.82374c-7.74315,0 -8.78656,-0.10983 -8.95131,-0.93357c-0.10983,-0.65899 0.60408,-1.15324 2.58106,-1.81223l2.80072,-0.93357v-14.4429c0,-11.42253 -0.16475,-14.49783 -0.71391,-14.71749c-1.31799,-0.49424 -5.82109,0.27458 -6.535,1.09832c-0.38441,0.43933 -0.93358,1.3729 -1.26307,2.03189c-0.3295,0.65899 -1.20815,1.20815 -2.08681,1.31799c-1.42781,0.16475 -1.48273,0.10983 -1.48273,-2.58105c0,-1.48273 0.21967,-3.34987 0.54916,-4.17361z" fill="#35414c"/><path d="M170.31147,42.32273l0.27458,2.19664l3.13021,0.27458c3.40479,0.3295 4.50311,0.98848 4.17361,2.52613c-0.10983,0.82374 -0.82374,1.09832 -2.96546,1.31799c-4.72278,0.49424 -4.77769,0.65899 -4.50311,9.77505c0.3295,9.28081 0.54916,9.66522 4.77769,9.50047c2.96546,-0.05491 3.67937,0.43933 2.85563,2.03189c-0.71391,1.31798 -4.06378,2.30647 -7.85299,2.30647c-2.63597,0 -3.18513,-0.21967 -4.61294,-1.7024l-1.59257,-1.64748l-0.16475,-9.6103l-0.21966,-9.6103l-1.64748,-0.82374c-1.92206,-0.98849 -1.86714,-1.3729 0.60407,-3.0753c0.98849,-0.71391 2.19664,-2.03189 2.69089,-2.91054c0.49425,-0.93357 1.20816,-2.19664 1.59257,-2.91055c1.42782,-2.41631 2.96546,-1.3729 3.4597,2.36139z" fill="#35414c"/><path d="M90.46361,50.1208c0.93357,2.19664 0.98848,7.41366 0.10983,8.29232c-0.43933,0.43933 -2.96546,0.65899 -7.63332,0.65899c-3.84412,0 -7.35874,0.16475 -7.85299,0.3295c-2.30647,0.87866 0.05491,6.26042 3.51462,8.07265c1.92206,0.98849 4.72278,1.04341 9.17097,0.05492c1.3729,-0.27458 1.86714,-0.16475 2.14172,0.54916c0.87865,2.36139 -4.06379,4.44819 -10.21438,4.33836c-5.65635,-0.10983 -9.17097,-2.14172 -11.53236,-6.69975c-1.64748,-3.29496 -1.64748,-9.99471 0,-13.34459c2.19664,-4.28345 5.21702,-6.80958 9.33572,-7.63332c6.20551,-1.20815 10.9832,0.76883 12.96018,5.38177zM75.19696,51.10929c-1.75731,3.62445 -1.15324,4.33836 3.7892,4.55803c3.07529,0.10983 4.06378,-0.05492 4.83261,-0.76882c1.31798,-1.31799 0.71391,-4.50311 -1.09832,-6.15059c-2.63597,-2.25156 -5.76618,-1.26306 -7.52349,2.36139z" fill="#35414c"/><path d="M237.30899,44.40953c4.39328,0.16475 6.58992,1.59257 8.18248,5.38177c3.18513,7.30383 -0.32949,17.62804 -7.13908,20.97791c-5.87601,2.96546 -12.13644,1.48273 -14.60766,-3.45971c-2.47122,-4.77769 -1.3729,-13.07 2.30647,-17.90261c1.48273,-1.92206 4.66786,-4.22853 6.64484,-4.77769c0.54916,-0.16475 2.63597,-0.27458 4.61294,-0.21967zM233.30012,48.14382c-1.31798,0.76882 -2.85564,4.00887 -3.62446,7.52349c-1.86714,8.84148 0.87866,15.37648 5.43669,13.01509c4.39328,-2.30647 6.58992,-15.48631 3.24005,-19.71484c-1.20815,-1.53765 -3.29496,-1.86715 -5.05227,-0.82374z" fill="#35414c"/><path d="M151.91461,44.95869l1.64748,0.10984l0.27458,11.47744c0.16475,7.68824 0.49425,11.58728 0.87866,11.69711c1.53765,0.49425 2.58105,1.70239 2.25155,2.58105c-0.49425,1.31798 -12.30119,1.31798 -12.85035,0c-0.21966,-0.60407 0.27458,-1.31798 1.42782,-2.25155l1.70239,-1.31798v-7.57841c0,-7.35874 -0.05492,-7.57841 -1.3729,-8.84148c-2.25155,-2.14173 -1.70239,-3.84412 1.64748,-4.99736c1.53765,-0.54916 3.51462,-0.93357 4.39328,-0.87866z" fill="#35414c"/><path d="M192.16804,45.45294c0.98849,0.98849 0.82374,2.36139 -0.43933,3.45971c-1.42782,1.26307 -1.42781,1.26307 0.60408,6.80958c3.40479,9.6103 3.78921,9.93979 5.4916,4.72277c0.54916,-1.81223 1.42781,-4.39327 1.86714,-5.76617c1.15323,-3.40479 1.04341,-4.55803 -0.54916,-6.04076c-2.7458,-2.58105 -1.20815,-3.84412 4.61294,-3.84412c2.7458,0 4.06378,0.21966 4.66786,0.87866c1.20815,1.20815 1.09832,1.70239 -0.65899,3.40479c-0.98849,0.93357 -2.25156,3.34988 -3.4048,6.42517c-9.44555,25.86544 -11.53235,29.1604 -17.73786,28.72107c-2.30647,-0.16475 -2.30648,-0.16475 -2.30648,-2.36139c0,-2.08681 0.10983,-2.14172 2.19664,-2.58105c2.36139,-0.49425 4.33837,-2.0868 5.54652,-4.44819c0.71391,-1.3729 0.65899,-1.75731 -0.54916,-4.39328c-0.76882,-1.53765 -3.02038,-6.69975 -4.99736,-11.36761c-2.03189,-4.66786 -4.1187,-9.00623 -4.72278,-9.66522c-1.31798,-1.3729 -1.3729,-3.29496 -0.05491,-4.00886c1.31798,-0.82374 9.6103,-0.76883 10.43404,0.05491z" fill="#35414c"/><path d="M37.96391,102.94999c6.31534,2.19664 14.55274,8.29232 14.16833,10.43404c-0.21966,1.09832 -13.01509,10.48896 -14.33307,10.48896c-0.49424,0 -2.36138,-0.76882 -4.00886,-1.75731c-7.52349,-4.22853 -15.59615,-0.60407 -14.88224,6.64484c0.49424,4.77769 4.4482,7.46858 12.13644,8.29232c9.50047,0.98849 15.81581,3.56954 21.25249,8.67673c6.20551,5.76618 8.95131,12.52085 8.89639,21.80165c0,5.93093 -1.31799,10.92828 -4.17362,15.76089c-3.62445,6.20551 -10.54387,11.64219 -17.8477,14.0585c-8.34723,2.7458 -20.09926,1.53764 -28.61123,-2.91055c-4.66786,-2.47122 -11.03811,-7.68824 -11.03811,-9.06114c0,-0.71391 2.36139,-2.7458 7.24891,-6.31534c4.00887,-2.85563 7.5235,-5.21702 7.85299,-5.21702c0.32949,0 1.64748,0.87865 2.96546,1.97697c11.36761,9.77505 27.56783,0.65899 21.9664,-12.3561c-2.03189,-4.77769 -5.98584,-6.97433 -14.71749,-8.29232c-7.41366,-1.09832 -15.1019,-4.94244 -19.05585,-9.55538c-5.71126,-6.58992 -7.68824,-15.92564 -5.10719,-24.27287c2.91055,-9.33572 10.04963,-16.14531 20.26401,-19.2206c3.7892,-1.09832 12.63068,-0.71391 17.02396,0.82374z" fill="#199ad6"/><path d="M115.72497,107.61785c1.09832,2.14172 3.02038,5.87601 4.33836,8.29232c2.80071,5.27193 7.52349,14.27816 12.90526,24.7122c2.19664,4.22853 5.05227,9.66522 6.31534,12.08152c1.26307,2.4163 4.61294,8.84148 7.41366,14.27816c2.85563,5.43669 6.75467,12.96017 8.73164,16.74938c2.03189,3.78921 4.22853,8.01773 4.94244,9.39063c2.25155,4.28345 2.08681,4.33837 -8.89639,4.33837c-11.20287,0 -10.15946,0.54916 -14.11341,-7.24891l-2.52614,-5.10719h-23.06472h-23.0098l-2.85564,5.71126c-1.59256,3.13021 -3.18513,5.93093 -3.56954,6.2055c-0.38441,0.21966 -4.72277,0.43933 -9.66521,0.43933c-7.63332,0 -9.00623,-0.10983 -9.28081,-0.87866c-0.27458,-0.76882 0.60408,-2.69088 7.24892,-15.32156c1.26307,-2.4163 4.50311,-8.62181 7.13908,-13.729c2.63597,-5.1621 5.76618,-11.09303 6.8645,-13.17984c1.09832,-2.14173 3.84412,-7.30383 6.04076,-11.53236c2.19664,-4.22853 5.38177,-10.43404 7.13908,-13.729c1.75731,-3.34987 5.32685,-10.26929 7.96282,-15.37648c2.63597,-5.1621 5.21702,-9.77504 5.65635,-10.26929c1.15323,-1.31798 1.86715,-0.659 4.28345,4.17361zM111.77101,139.24946c-0.87865,0 -0.76883,-0.27458 -6.09567,10.59879c-6.91942,14.00358 -7.41366,15.21173 -7.08416,16.03547c0.21967,0.71391 2.4163,0.82374 13.17984,0.82374c8.73165,0 13.0151,-0.21966 13.28968,-0.60407c0.16475,-0.3295 -2.58106,-6.48009 -6.1506,-13.729c-3.56954,-7.194 -6.80958,-13.12492 -7.13908,-13.12492z" fill="#199ad6"/><path d="M175.52849,102.45574c0.43933,0 7.02925,5.27194 14.66258,11.6422c39.92393,33.44385 50.41289,42.17548 50.96205,42.17548c0.38441,0 0.54916,-8.34723 0.54916,-25.70068c0,-19.76976 0.16475,-25.92035 0.71391,-26.63426c0.60407,-0.87865 1.70239,-0.93357 9.72013,-0.82374l9.06114,0.16475l0.16475,46.89826c0.05491,25.81052 -0.10983,47.17284 -0.3295,47.39251c-0.49424,0.49425 -4.88753,-3.02038 -52.55461,-42.66973c-11.25778,-9.33572 -12.96017,-10.70862 -13.50933,-10.70862c-0.27458,0 -0.49425,9.82997 -0.49425,25.59086c0,16.58463 -0.21966,25.92035 -0.54916,26.63426c-0.54916,0.98849 -1.26307,1.04341 -9.33572,1.04341c-8.40215,0 -8.73164,-0.05491 -9.55538,-1.20815c-0.76882,-1.09832 -0.87866,-6.42518 -0.87866,-46.62369c0,-24.98678 0.16475,-45.79994 0.3295,-46.29418c0.16475,-0.49425 0.65899,-0.87866 1.0434,-0.87866z" fill="#199ad6"/><path d="M374.54407,145.83938c3.02038,0.05491 13.12493,1.59257 17.07888,2.69089c6.09567,1.64748 7.02925,1.97697 11.42253,3.84412c18.83619,8.12757 33.88317,22.46065 43.21889,41.13209c4.88752,9.82996 7.30382,18.45177 8.56689,30.75296c1.64748,16.20022 -2.96546,35.80522 -11.91677,50.79729c-8.40215,13.94867 -22.62539,26.57934 -37.28796,33.11435c-6.80959,3.07529 -7.96282,3.51463 -9.06114,3.51463c-1.75731,0 -1.26307,-0.71391 1.53764,-2.30647c3.7892,-2.14173 9.44556,-6.97433 13.12493,-11.25778c14.49782,-16.91413 17.35345,-40.41817 7.19399,-60.13301c-8.07265,-15.70597 -22.07623,-25.86544 -39.92393,-28.99565c-3.13021,-0.54916 -5.87601,-1.20816 -6.20551,-1.53765c-0.82374,-0.82374 -0.7139,-59.80352 0.10984,-60.79201c0.38441,-0.43933 1.31798,-0.82374 2.14172,-0.82374z" fill="url(#color-1)"/><path d="M473.61253,225.57741c3.89904,7.41366 5.98584,14.00359 7.24891,22.89998c3.13021,21.9664 -4.1187,43.54839 -19.98942,59.3642c-9.82997,9.88488 -21.25249,16.09038 -35.42082,19.27551c-7.19399,1.64748 -22.07623,1.64748 -29.27023,0c-8.45706,-1.92206 -17.13379,-5.43669 -16.41988,-6.58992c0.16475,-0.27458 1.59256,-0.60407 3.18512,-0.76882c8.45707,-0.82374 17.79279,-3.34987 26.79901,-7.24891c26.03019,-11.14795 45.96469,-34.3225 53.48818,-62.05508c2.19664,-8.18248 2.69088,-12.13644 2.85564,-23.3393c0.05491,-6.20551 0.16474,-11.3127 0.16474,-11.42253c0.3295,-1.26307 4.22854,4.00887 7.35874,9.88488z" fill="url(#color-2)"/><path d="M413.64426,253.47474c1.59256,6.37025 1.64748,17.07888 0.05492,23.06472c-4.06378,15.21173 -13.83884,26.90883 -27.67767,33.11434c-7.35874,3.34987 -10.21438,3.89904 -19.93451,3.89904c-10.04963,0.05491 -12.68559,-0.49425 -20.92299,-4.33837c-10.70862,-4.99736 -18.56161,-12.85035 -23.50405,-23.50405c-3.7892,-8.12757 -4.39328,-10.92828 -4.39328,-20.70333c0,-7.35874 0.16475,-9.06114 1.26307,-12.63068c4.50311,-14.44291 12.90526,-24.60237 25.64577,-30.97262c4.39328,-2.19664 10.10454,-4.00887 14.7724,-4.66786c24.76711,-3.56954 48.38099,12.30118 54.69633,36.7388zM359.00284,235.95654c-7.08416,1.64748 -14.99207,8.07265 -18.28703,14.82732c-5.98584,12.3561 -4.17361,25.70069 4.88753,35.42082c4.99736,5.32685 13.3995,9.00622 20.48367,9.00622c9.2808,0 19.11077,-5.65635 23.94338,-13.729c7.57841,-12.74051 5.93093,-27.40308 -4.17361,-37.67237c-4.00887,-4.06378 -7.24891,-6.04076 -12.30118,-7.57841c-3.29496,-0.98849 -10.9832,-1.09832 -14.55274,-0.27458z" fill="#199ad6"/><path d="M280.69263,222.17262c8.51198,4.28345 20.48367,16.09039 18.34194,18.06736c-2.41631,2.25155 -13.61917,9.9398 -14.44291,9.9398c-0.60408,0 -1.81223,-1.09832 -3.02038,-2.69088c-4.06378,-5.71126 -12.41102,-10.65371 -19.55009,-11.53236c-14.16833,-1.81223 -26.24985,6.31534 -31.02754,20.81316c-1.53765,4.55803 -1.42781,13.94866 0.16475,18.5616c2.80071,7.90791 8.12756,14.00358 15.43139,17.57312c3.89903,1.86714 4.55803,2.03189 10.43404,2.19664c7.79807,0.27458 12.30118,-0.93357 17.95753,-4.77769c3.89904,-2.69088 8.67673,-8.62181 8.34724,-10.43404c-0.16475,-0.76882 -1.7024,-0.93357 -12.24627,-1.15323c-6.64483,-0.21967 -12.13644,-0.38442 -12.19135,-0.43933c-0.10983,-0.05491 -0.16475,-3.62445 -0.16475,-7.96282c0,-5.38177 0.21967,-8.07265 0.659,-8.51198c0.49424,-0.49424 6.48009,-0.65899 23.55896,-0.65899c19.93451,0 22.95489,0.10983 23.55897,0.82374c0.87865,1.09832 0.76882,6.75466 -0.27458,12.19135c-4.50311,23.50405 -24.65728,40.25343 -48.43591,40.25343c-25.59086,0 -46.56877,-19.93451 -48.32608,-45.9647c-1.64748,-24.7122 16.85921,-47.61217 41.29683,-51.18171c9.82996,-1.42782 21.03283,0.38441 29.92922,4.88752z" fill="#199ad6"/><path d="M20.44571,217.77934c24.76712,0 29.16039,0.54916 38.93545,5.10719c22.13115,10.26929 32.83977,35.42082 24.65728,58.04621c-2.03189,5.60143 -7.74316,14.44291 -11.3127,17.57312c-6.535,5.71127 -13.83883,9.77504 -21.58199,12.13644c-3.95395,1.15323 -5.1621,1.26306 -27.62275,1.42782c-17.73787,0.21967 -23.72371,0.10983 -24.32778,-0.38441c-0.65899,-0.60408 -0.76882,-7.24891 -0.76882,-46.73352c0,-43.27381 0.05492,-46.07452 0.98849,-46.56877c0.54916,-0.38441 8.40215,-0.60408 21.03283,-0.60408zM18.85314,236.56061c-0.87865,0.87866 -0.93357,55.41025 -0.10983,57.05773c0.54916,0.98849 1.26307,1.04341 10.37912,1.04341c15.98056,0 21.69182,-1.75731 28.77598,-8.84148c4.06379,-4.06378 6.58992,-8.73165 7.85299,-14.49783c3.34987,-15.26665 -5.98585,-30.69804 -20.923,-34.59708c-4.17361,-1.04341 -24.93186,-1.20816 -25.97527,-0.16475z" fill="#199ad6"/><path d="M102.21563,217.77934h8.62181c4.77769,0 9.00623,0.21967 9.39064,0.43933c0.54916,0.38441 0.65899,10.15946 0.54916,47.11792l-0.16475,46.62369l-9.06114,0.16474c-8.01774,0.10983 -9.11606,0.05491 -9.72013,-0.82374c-0.87865,-1.15323 -1.0434,-89.84258 -0.16474,-92.09413z" fill="#199ad6"/><path d="M189.9714,218.43833c0.93357,0.93357 0.93357,16.14531 0,16.74938c-0.38441,0.21966 -7.02925,0.54916 -14.71749,0.71391l-14.00358,0.27458l-0.16475,7.96282c-0.10983,6.97433 -0.05491,8.01774 0.82374,8.62181c0.65899,0.54916 4.88752,0.71391 16.63954,0.71391c11.47744,0 15.87072,0.16475 16.36497,0.65899c0.43933,0.43933 0.65899,3.07529 0.65899,8.2374c0,6.91942 -0.10983,7.57841 -1.0434,8.12757c-0.65899,0.3295 -6.97434,0.54916 -16.63955,0.54916c-11.42253,0 -15.76089,0.16474 -16.25513,0.65899c-0.43933,0.43933 -0.659,3.73429 -0.659,11.14795c0,7.41366 0.21966,10.70862 0.659,11.14794c0.49425,0.49424 5.43668,0.659 18.78127,0.659c9.99471,0 18.5067,0.21966 18.89111,0.43932c0.49425,0.38441 0.65899,2.47122 0.54916,8.67673l-0.16475,8.18248h-29.10548h-29.10548l-0.16475,-46.34911c-0.05491,-33.77334 0.05491,-46.51385 0.49425,-47.06301c0.87866,-1.04341 47.11792,-1.15324 48.16133,-0.10984z" fill="#199ad6"/></g></g></svg>