<svg width="7078" height="1200" viewBox="0 0 7078 1200" fill="none" xmlns="http://www.w3.org/2000/svg">
<path d="M621.4 466.1L424.6 0.0996094H0V50.3994L372.6 932.199H424.5L621.3 466.199L621.4 466.1Z" fill="#E9E7E1"/>
<path d="M1067.2 466.1L1264.1 932.1H1316L1688.6 50.2998V0H1264L1067.1 466L1067.2 466.1Z" fill="#E9E7E1"/>
<path d="M1067.2 466.1L870.3 0.0996094H818.4L621.5 466.1L818.4 932.1H870.3L1067.2 466.1Z" fill="#E9E7E1"/>
<path d="M1291.8 1199.9C1223.8 1199.9 1186.4 1187.3 1156.4 1177.2C1131.5 1168.7 1111.9 1162.1 1068 1162.1C1024.1 1162.1 1004.5 1168.7 979.6 1177.2C949.6 1187.3 912.2 1199.9 844.2 1199.9C776.2 1199.9 738.801 1187.3 708.801 1177.2C683.901 1168.7 664.301 1162.1 620.401 1162.1C576.5 1162.1 556.901 1168.7 532 1177.2C502 1187.3 464.6 1199.9 396.6 1199.9C328.6 1199.9 291.2 1187.3 261.2 1177.2C236.3 1168.7 216.7 1162.1 172.8 1162.1V1015.3C240.8 1015.3 278.2 1027.9 308.2 1038C333.1 1046.5 352.7 1053.1 396.6 1053.1C440.5 1053.1 460.1 1046.5 485 1038C515 1027.9 552.401 1015.3 620.401 1015.3C688.401 1015.3 725.801 1027.9 755.801 1038C780.7 1046.5 800.301 1053.1 844.2 1053.1C888.1 1053.1 907.7 1046.5 932.6 1038C962.6 1027.9 1000 1015.3 1068 1015.3C1136 1015.3 1173.4 1027.9 1203.4 1038C1228.3 1046.5 1247.9 1053.1 1291.8 1053.1C1335.7 1053.1 1355.3 1046.5 1380.2 1038C1410.2 1027.9 1447.6 1015.3 1515.6 1015.3V1162.1C1471.6 1162.1 1452.1 1168.7 1427.2 1177.2C1397.2 1187.3 1359.8 1199.9 1291.8 1199.9Z" fill="#169AA8"/>
<path d="M2353.92 278.001C2338.95 253.819 2315.98 234.714 2285.78 220.953C2255.32 207.192 2217.51 200.111 2173.29 200.111H1990.52V527.168H2159.93C2207.76 527.168 2248.51 519.686 2280.97 504.856C2313.17 490.16 2337.49 470.12 2353.12 445.403C2368.75 420.553 2376.63 392.497 2376.63 361.768C2376.63 331.04 2369.02 302.048 2354.05 277.867L2353.92 278.001ZM2245.17 408.53C2237.55 421.891 2226.19 432.445 2211.23 439.659C2196.53 446.74 2178.5 450.348 2157.66 450.348H2101.81V277.199H2164.47C2194.8 277.199 2217.91 284.948 2233.28 300.045C2248.64 315.276 2256.39 335.85 2256.39 361.369C2256.39 386.887 2252.51 395.17 2245.03 408.397L2245.17 408.53Z" fill="#E9E7E1"/>
<path d="M2534.01 450.348V397.041H2715.58V326.766H2534.01V277.199H2725.2V200.244H2422.59V527.302H2726.53V450.347L2534.01 450.348Z" fill="#E9E7E1"/>
<path d="M3074.57 436.453C3053.86 442.866 3031.15 446.073 3007.1 446.073C2983.05 446.073 2959.8 442.599 2941.37 435.919C2922.66 429.105 2908.1 419.219 2898.08 406.794C2887.93 394.102 2882.72 379.405 2882.72 362.839C2882.72 346.272 2887.79 331.843 2897.81 319.418C2907.7 307.127 2922.26 297.374 2940.97 290.56C2959.4 283.88 2981.71 280.54 3007.23 280.54C3032.75 280.54 3052.66 283.613 3073.37 289.625C3090.87 294.701 3106.23 301.248 3118.92 308.997V220.419C3098.75 210.533 3077.37 202.917 3055.06 197.573C3031.95 192.095 3006.3 189.289 2978.51 189.289C2933.22 189.289 2893.54 197.172 2860.67 212.536C2828.07 227.9 2802.82 249.143 2785.85 275.729C2768.89 302.316 2760.34 332.644 2760.34 365.777C2760.34 398.91 2768.75 428.303 2785.45 454.222C2802.15 480.141 2826.87 500.849 2858.93 515.813C2891.27 530.776 2930.28 538.525 2975.03 538.525C3019.79 538.525 3030.75 535.452 3053.59 529.307C3075.77 523.428 3097.95 514.076 3119.86 501.518V415.612C3107.43 424.162 3092.34 431.243 3074.7 436.721L3074.57 436.453Z" fill="#E9E7E1"/>
<path d="M3558.47 273.058C3541.11 247.139 3515.99 226.431 3483.92 211.601C3451.59 196.771 3413.52 189.156 3370.63 189.156C3327.74 189.156 3289.13 196.638 3256.8 211.601C3224.6 226.431 3199.49 247.139 3182.12 273.058C3164.75 298.977 3156.07 328.903 3156.07 361.903C3156.07 394.903 3164.88 424.162 3182.25 450.883C3199.62 477.603 3224.87 498.979 3257.07 514.744C3273.23 522.627 3290.87 528.505 3309.71 532.513C3328.55 536.521 3348.72 538.525 3370.1 538.525C3412.72 538.525 3450.79 530.643 3483.12 515.011C3515.32 499.379 3540.57 478.003 3558.07 451.282C3575.58 424.696 3584.39 394.635 3584.39 362.037C3584.39 329.438 3575.58 299.11 3558.34 273.191L3558.47 273.058ZM3452.39 407.729C3444.65 420.821 3433.56 431.243 3419.26 438.457C3412.18 442.065 3404.57 444.737 3396.28 446.607C3388.13 448.477 3379.31 449.279 3370.1 449.279C3351.39 449.279 3334.82 445.672 3320.66 438.457C3306.5 431.109 3295.28 420.821 3287.53 407.729C3279.78 394.636 3275.77 379.539 3275.77 362.838C3275.77 346.138 3279.78 331.308 3287.53 318.482C3295.28 305.656 3306.5 295.636 3320.66 288.555C3334.82 281.608 3351.39 278.001 3369.96 278.001C3388.53 278.001 3404.97 281.475 3419.13 288.555C3433.29 295.636 3444.51 305.656 3452.26 318.482C3460.01 331.308 3463.88 346.138 3463.88 362.705C3463.88 379.271 3460.01 394.635 3452.26 407.595L3452.39 407.729Z" fill="#E9E7E1"/>
<path d="M3741.78 437.923V200.245H3630.35V527.303H3930.16V437.923H3741.78Z" fill="#E9E7E1"/>
<path d="M4345.26 273.058C4327.89 247.139 4302.77 226.431 4270.71 211.601C4238.38 196.771 4200.3 189.156 4157.41 189.156C4114.53 189.156 4075.92 196.638 4043.58 211.601C4011.39 226.431 3986.27 247.139 3968.9 273.058C3951.67 298.977 3942.85 328.903 3942.85 361.903C3942.85 394.903 3951.67 424.162 3969.03 450.883C3986.4 477.603 4011.65 498.979 4043.85 514.744C4060.02 522.627 4077.65 528.505 4096.49 532.513C4115.33 536.521 4135.5 538.525 4156.88 538.525C4199.5 538.525 4237.57 530.643 4269.91 515.011C4302.1 499.379 4327.35 478.003 4344.86 451.282C4362.36 424.696 4371.18 394.635 4371.18 362.037C4371.18 329.438 4362.36 299.11 4345.12 273.191L4345.26 273.058ZM4239.31 407.729C4231.56 420.821 4220.47 431.243 4206.31 438.457C4199.23 442.065 4191.61 444.737 4183.33 446.607C4175.05 448.477 4166.36 449.279 4157.01 449.279C4138.31 449.279 4121.74 445.672 4107.58 438.457C4093.42 431.109 4082.19 420.821 4074.45 407.729C4066.7 394.636 4062.69 379.539 4062.69 362.838C4062.69 346.138 4066.7 331.308 4074.45 318.482C4082.19 305.656 4093.42 295.636 4107.58 288.555C4121.74 281.608 4138.31 278.001 4156.88 278.001C4175.45 278.001 4191.88 281.475 4206.04 288.555C4220.2 295.636 4231.43 305.656 4239.18 318.482C4246.92 331.308 4250.8 346.138 4250.8 362.705C4250.8 379.271 4246.93 394.635 4239.18 407.595L4239.31 407.729Z" fill="#E9E7E1"/>
<path d="M4688.35 200.111V420.421L4568.24 200.111H4417.27V527.169H4515.33V303.519L4639.85 527.169H4786.01V200.111H4688.35Z" fill="#E9E7E1"/>
<path d="M4848 199.711V527.303H4959.43V199.711H4848Z" fill="#E9E7E1"/>
<path d="M5147.54 447.008L5328.3 273.725V200.111H5012.6V280.406H5184.28L5010.19 451.282V527.168H5335.25V446.873H5147.4L5147.54 447.008Z" fill="#E9E7E1"/>
<path d="M5384.01 199.711V527.303H5495.44V199.711H5384.01Z" fill="#E9E7E1"/>
<path d="M5828.51 200.111V420.421L5708.4 200.111H5557.43V527.169H5655.49V303.519L5780.01 527.169H5926.17V200.111H5828.51Z" fill="#E9E7E1"/>
<path d="M6161.31 331.709L6143.27 403.32H6283.02L6280.22 409.332C6274.07 422.559 6263.25 432.713 6248.28 439.66C6233.59 446.474 6215.15 449.814 6193.37 449.814C6171.6 449.814 6153.83 446.474 6138.2 440.061C6122.43 433.515 6110.01 423.895 6101.46 411.871C6092.91 399.713 6088.5 385.284 6088.5 369.252C6088.5 353.22 6093.31 338.658 6102.66 325.698C6112.01 312.872 6127.24 302.317 6147.95 294.702C6168.39 287.086 6195.11 283.212 6227.44 283.212C6259.77 283.212 6276.07 285.617 6298.12 290.426C6317.62 294.702 6335.26 300.046 6350.62 306.726V219.083C6306.13 199.711 6255.63 189.958 6200.59 189.958C6145.55 189.958 6107.47 197.84 6073.27 213.472C6039.33 228.97 6013.68 250.079 5997.11 276.265C5980.41 302.451 5972 332.11 5972 364.576C5972 397.042 5980.68 428.037 5997.65 454.09C6014.75 480.142 6039.6 500.984 6071.8 515.68C6104.13 530.51 6143.01 538.125 6187.23 538.125C6231.45 538.125 6261.38 531.846 6290.37 519.421C6319.09 507.129 6341.54 488.425 6357.17 463.976C6372.8 439.527 6380.69 409.065 6380.69 373.661V331.977H6161.18L6161.31 331.709Z" fill="#E9E7E1"/>
<path d="M2418.45 706.329L2368.75 925.837L2307.56 706.329H2180.1L2123.72 915.55L2075.76 706.329H1963.8L2046.63 1033.39H2178.63L2237.82 815.348L2300.34 1033.39H2447.44L2529.61 706.329H2418.45Z" fill="#E9E7E1"/>
<path d="M2676.97 956.433V903.126H2858.53V832.851H2676.97V783.284H2868.15V706.329H2565.54V1033.39H2869.49V956.432L2676.97 956.433Z" fill="#E9E7E1"/>
<path d="M3175.17 706.329H3009.64L2894.21 1033.39H3003.63L3024.47 969.258H3156.47L3177.04 1033.39H3289.67L3175.17 706.329ZM3043.17 910.607L3090.33 764.847L3137.23 910.607H3043.17Z" fill="#E9E7E1"/>
<path d="M3434.09 944.141V706.463H3322.67V1033.52H3622.47V944.141H3434.09Z" fill="#E9E7E1"/>
<path d="M3572.1 706.329V792.503H3688.34V1033.52H3799.76V792.503H3913.99V706.329H3572.1Z" fill="#E9E7E1"/>
<path d="M4206.44 706.329V827.773H4062.29V706.329H3950.86V1033.39H4062.29V904.995H4206.44V1033.39H4317.87V706.329H4206.44Z" fill="#E9E7E1"/>
<path d="M4838.11 762.175C4828.5 744.407 4813.93 730.511 4794.96 720.759C4775.72 710.872 4751.67 705.929 4723.48 705.929H4495.83V1033.52H4607.25V946.279H4705.05C4736.98 946.279 4764.5 941.069 4786.54 930.915C4808.46 920.761 4825.16 906.599 4836.11 888.563C4847.07 870.527 4852.68 849.284 4852.68 825.636C4852.68 801.989 4847.73 780.212 4838.12 762.309L4838.11 762.175ZM4721.08 865.583C4715.6 869.859 4708.79 873.065 4700.91 875.203C4693.02 877.341 4683.94 878.409 4673.78 878.409H4607.38V780.345H4680.6C4698.63 780.345 4712.93 784.621 4722.95 792.904C4733.24 801.454 4738.31 813.479 4738.31 828.576C4738.31 843.673 4732.57 856.632 4721.08 865.45V865.583Z" fill="#E9E7E1"/>
<path d="M5156.76 917.421C5175.19 915.951 5191.49 910.741 5205.39 901.789C5219.15 892.971 5230.1 880.947 5237.58 866.251C5245.2 851.421 5249.08 834.32 5249.08 815.348C5249.08 796.376 5244 774.332 5233.84 758.033C5223.82 741.733 5209.26 728.908 5190.56 719.956C5171.72 710.872 5149.27 706.329 5123.76 706.329H4891.69V1033.39H5003.11V887.894L5117.74 1033.39H5247.47L5148.61 917.954L5156.76 917.286V917.421ZM5117.61 857.834C5107.72 865.182 5093.29 868.923 5074.86 868.923H5002.98V782.349H5078.06C5095.7 782.349 5109.46 785.823 5118.68 792.77C5128.3 799.984 5133.11 810.672 5133.11 824.433C5133.11 838.195 5127.9 850.085 5117.61 857.7V857.834Z" fill="#E9E7E1"/>
<path d="M5682.21 779.276C5664.85 753.358 5639.73 732.649 5607.66 717.819C5575.33 702.989 5537.25 695.374 5494.37 695.374C5451.48 695.374 5412.87 702.856 5380.54 717.819C5348.34 732.649 5323.22 753.358 5305.86 779.276C5288.62 805.195 5279.8 835.122 5279.8 868.122C5279.8 901.122 5288.62 930.38 5305.99 957.101C5323.36 983.821 5348.61 1005.2 5380.81 1020.96C5396.97 1028.84 5414.61 1034.72 5433.45 1038.73C5452.28 1042.74 5472.46 1044.74 5493.83 1044.74C5536.45 1044.74 5574.53 1036.86 5606.86 1021.23C5639.06 1005.6 5664.31 984.221 5681.81 957.501C5699.32 930.914 5708.13 900.853 5708.13 868.255C5708.13 835.656 5699.32 805.328 5682.08 779.409L5682.21 779.276ZM5576.27 913.947C5568.52 927.04 5557.43 937.461 5543.27 944.675C5536.19 948.283 5528.57 950.955 5520.29 952.825C5512.14 954.695 5503.32 955.497 5494.1 955.497C5475.4 955.497 5458.83 951.89 5444.67 944.675C5430.51 937.461 5419.28 927.04 5411.53 913.947C5403.79 900.854 5399.78 885.757 5399.78 869.056C5399.78 852.356 5403.65 837.526 5411.53 824.7C5419.28 811.874 5430.51 801.854 5444.8 794.774C5458.96 787.826 5475.53 784.219 5494.1 784.219C5512.67 784.219 5529.1 787.693 5543.27 794.774C5557.43 801.854 5568.65 811.874 5576.4 824.7C5584.15 837.526 5588.02 852.356 5588.02 868.923C5588.02 885.489 5584.15 900.853 5576.4 913.813L5576.27 913.947Z" fill="#E9E7E1"/>
<path d="M5840.93 706.329V892.304C5840.93 912.478 5834.92 928.243 5822.9 939.198C5811.14 950.02 5794.84 955.498 5774.67 955.498C5754.49 955.498 5737.92 950.421 5723.36 940.267V1019.89C5730.98 1026.44 5742.33 1032.19 5757.3 1036.86C5773.33 1041.94 5791.77 1044.48 5812.07 1044.48C5832.38 1044.48 5865.51 1039.94 5886.49 1030.98C5907.07 1022.17 5923.37 1008.41 5934.85 989.968C5946.34 971.397 5952.22 947.749 5952.22 919.292V706.331H5840.8L5840.93 706.329Z" fill="#E9E7E1"/>
<path d="M6122.16 956.433V903.126H6303.73V832.851H6122.16V783.284H6313.35V706.329H6010.74V1033.39H6314.69V956.432L6122.16 956.433Z" fill="#E9E7E1"/>
<path d="M6662.72 942.538C6642.01 948.951 6619.3 952.158 6595.25 952.158C6571.2 952.158 6547.95 948.684 6529.52 942.004C6510.81 935.19 6496.25 925.304 6486.1 912.879C6475.94 900.187 6470.73 885.491 6470.73 868.924C6470.73 852.357 6475.81 837.928 6485.83 825.503C6495.72 813.212 6510.28 803.459 6528.98 796.645C6547.42 789.965 6569.73 786.625 6595.25 786.625C6620.77 786.625 6640.67 789.698 6661.38 795.71C6678.88 800.786 6694.25 807.333 6706.94 815.082V726.504C6686.77 716.618 6665.26 709.002 6643.08 703.658C6620.1 698.18 6594.31 695.374 6566.53 695.374C6521.23 695.374 6481.55 703.123 6448.69 718.621C6416.09 733.985 6390.84 755.228 6373.87 781.815C6356.9 808.401 6348.35 838.729 6348.35 871.862C6348.35 904.995 6356.77 934.388 6373.47 960.307C6390.04 986.226 6414.75 1006.93 6446.95 1021.9C6479.28 1036.86 6518.29 1044.61 6563.05 1044.61C6607.81 1044.61 6618.76 1041.54 6641.61 1035.39C6663.79 1029.51 6685.96 1020.16 6707.88 1007.47V921.563C6695.45 930.114 6680.35 937.195 6662.72 942.672L6662.72 942.538Z" fill="#E9E7E1"/>
<path d="M6735.67 706.329V792.503H6851.9V1033.52H6963.32V792.503H7077.42V706.329H6735.53H6735.67Z" fill="#E9E7E1"/>
</svg>
