<svg aria-label="Website logo" xmlns="http://www.w3.org/2000/svg" fill="none" viewBox="0 0 116 36">
			<path fill="#FFFEF8" d="M.125.242H6.06c3.163 0 4.647 1.854 4.647 5.127 0 4.08-2.248 5.04-5.105 5.04H4.03v7.506H.125V.242ZM5.34 7.683c1.44 0 1.702-.764 1.702-2.377 0-1.332-.152-2.314-1.724-2.314H4.03v4.691h1.31ZM12.585.242h4.865c3.557 0 5.869.96 5.869 4.67 0 2.181-.414 3.62-2.16 4.45l2.422 8.553h-4.038l-1.941-7.92H16.49v7.92h-3.905V.242Zm4.997 7.507c1.636 0 2.116-.915 2.116-2.487s-.458-2.4-1.942-2.4H16.49V7.75h1.092ZM25.674.242h7.942v2.662H29.58v4.385h3.078v2.705h-3.078v5.282h4.079v2.639h-7.984V.242ZM35.428.242h4.603c3.034 0 5.63.698 5.63 4.625 0 2.138-.983 3.252-2.599 3.558 2.052.262 3.142 1.746 3.142 4.255 0 3.666-1.942 5.237-5.345 5.237h-5.433V.242h.002Zm4.67 7.069c1.767 0 2.137-.85 2.137-2.336 0-1.395-.764-2.115-2.226-2.115h-.676V7.31h.764Zm.065 7.876c1.724 0 2.27-.874 2.27-2.575 0-1.986-.59-2.728-2.292-2.728h-.808v5.301h.83v.002ZM50.133 10.692 46.773.24h3.688l1.68 5.585L53.645.24h3.536l-3.296 10.452v7.223h-3.753v-7.223ZM58.098 12.568l3.337-.502c.044 2.291.568 3.141 1.55 3.141.808 0 .981-.676.981-1.288 0-1.462-.741-2.336-1.941-3.36l-1.528-1.331c-1.354-1.134-2.377-2.466-2.377-4.603C58.12 1.635 60.017 0 63.073 0c3.775 0 4.319 2.945 4.385 5.02l-3.36.413c-.043-1.57-.151-2.573-1.155-2.573-.72 0-1.048.764-1.048 1.373 0 1.31.676 2.008 1.702 2.902l1.461 1.287c1.528 1.31 2.75 2.858 2.75 5.301 0 2.444-1.812 4.451-4.625 4.451-3.337 0-4.953-1.68-5.083-5.606h-.002ZM.002 35.083V21.749h8.433v1.244H1.388v4.848h6.2v1.243h-6.2v6.001H0h.002v-.002ZM16.58 35.264c-1.045 0-1.965-.196-2.766-.585a5.842 5.842 0 0 1-2-1.567 6.851 6.851 0 0 1-1.207-2.208 7.962 7.962 0 0 1-.407-2.505c0-.852.135-1.67.407-2.488a6.878 6.878 0 0 1 1.207-2.208 5.818 5.818 0 0 1 2-1.56c.798-.384 1.721-.575 2.767-.575 1.045 0 1.963.193 2.757.575a5.768 5.768 0 0 1 1.99 1.56 7.02 7.02 0 0 1 1.217 2.208c.277.818.414 1.646.414 2.488 0 .842-.14 1.687-.414 2.505a7.046 7.046 0 0 1-1.217 2.208 5.875 5.875 0 0 1-1.99 1.567c-.794.39-1.712.585-2.757.585Zm0-1.297c.973 0 1.832-.243 2.576-.73.745-.487 1.327-1.15 1.749-1.99.42-.84.631-1.79.631-2.848 0-1.058-.21-1.986-.631-2.82a5.021 5.021 0 0 0-1.749-1.984c-.744-.487-1.603-.73-2.575-.73-.972 0-1.851.243-2.596.73a5.02 5.02 0 0 0-1.748 1.983c-.42.835-.631 1.775-.631 2.82 0 1.046.21 2.006.631 2.848.421.843 1.004 1.506 1.748 1.99.745.488 1.609.73 2.596.73ZM30.401 35.264c-1.07 0-1.97-.21-2.703-.632a4.158 4.158 0 0 1-1.667-1.748c-.38-.744-.568-1.608-.568-2.595v-8.542h1.388v8.542c0 1.082.294 1.961.884 2.64.588.678 1.476 1.018 2.666 1.018s2.094-.34 2.676-1.019c.583-.678.875-1.56.875-2.639v-8.542h1.388v8.542c0 .984-.189 1.851-.568 2.595a4.143 4.143 0 0 1-1.668 1.748c-.732.422-1.633.632-2.703.632ZM38.35 35.083V21.749h1.28l7.443 10.849V21.749h1.389v13.334H47.18l-7.443-10.849v10.849H38.35ZM51.451 35.083V21.749h4.162c1.058 0 1.984.189 2.775.568.793.38 1.451.886 1.973 1.523a6.697 6.697 0 0 1 1.18 2.145 7.645 7.645 0 0 1 0 4.867 6.697 6.697 0 0 1-1.18 2.145 5.672 5.672 0 0 1-1.973 1.523c-.794.38-1.72.568-2.775.568h-4.162v-.005Zm4.126-12.093h-2.74v10.85h2.74c.83 0 1.552-.155 2.171-.461a4.523 4.523 0 0 0 1.55-1.234c.414-.517.725-1.1.928-1.748a6.572 6.572 0 0 0 0-3.964 5.314 5.314 0 0 0-.928-1.748 4.521 4.521 0 0 0-1.55-1.234c-.619-.306-1.341-.46-2.171-.46ZM63.09 35.083l4.74-13.334h1.711L74.3 35.083h-1.477l-1.207-3.442h-5.84l-1.206 3.442h-1.48Zm3.117-4.703h4.972l-2.487-7.027-2.488 7.027h.003ZM78.588 35.083V22.99h-4.323v-1.243H84.3v1.243h-4.324v12.093h-1.389ZM86.57 35.083V21.749h1.389v13.334H86.57ZM97.005 35.264c-1.045 0-1.965-.196-2.766-.585a5.842 5.842 0 0 1-2-1.567 6.853 6.853 0 0 1-1.208-2.208 7.962 7.962 0 0 1-.406-2.505c0-.852.135-1.67.406-2.488a6.88 6.88 0 0 1 1.207-2.208 5.818 5.818 0 0 1 2-1.56c.799-.384 1.722-.575 2.767-.575 1.046 0 1.964.193 2.757.575a5.768 5.768 0 0 1 1.991 1.56c.534.654.94 1.39 1.217 2.208a7.724 7.724 0 0 1 0 4.993 7.048 7.048 0 0 1-1.217 2.208 5.875 5.875 0 0 1-1.99 1.567c-.794.39-1.712.585-2.758.585Zm0-1.297c.973 0 1.832-.243 2.576-.73.745-.487 1.327-1.15 1.748-1.99.422-.84.632-1.79.632-2.848 0-1.058-.21-1.986-.632-2.82a5.015 5.015 0 0 0-1.748-1.984c-.744-.487-1.603-.73-2.576-.73-.971 0-1.85.243-2.595.73a5.02 5.02 0 0 0-1.748 1.983c-.421.835-.632 1.775-.632 2.82 0 1.046.21 2.006.632 2.848.421.843 1.004 1.506 1.748 1.99.745.488 1.609.73 2.596.73ZM105.889 35.083V21.749h1.28l7.443 10.849V21.749h1.389v13.334h-1.281l-7.443-10.849v10.849h-1.388Z"/>
		</svg>