<?xml version="1.0" encoding="UTF-8"?>
<svg id="Layer_1" xmlns="http://www.w3.org/2000/svg" baseProfile="tiny" version="1.2" viewBox="0 0 1000 389.49">
  <!-- Generator: Adobe Illustrator 30.1.0, SVG Export Plug-In . SVG Version: 2.1.1 Build 136)  -->
  <g>
    <path d="M292.12,216.59l24.83-1.58c.63,11.55,9.49,19.45,21.98,19.45,10.91,0,18.82-5.69,18.82-13.92,0-6.64-4.74-10.28-13.76-11.86l-13.6-2.21c-22.46-3.48-35.59-16.13-35.59-34.32,0-21.04,17.24-34.48,41.44-34.48s42.86,14.87,43.81,35.59l-25.15,1.74c-.79-10.44-8.54-17.56-18.82-17.56-9.02,0-15.97,5.06-15.97,12.81,0,6.64,5.38,10.6,12.81,11.86l13.6,2.21c23.57,3.64,36.69,15.97,36.69,34.32,0,21.19-18.35,35.74-44.76,35.74s-46.02-15.82-46.34-37.8Z" fill="#00685e"/>
    <path d="M389.24,230.35c0-15.02,13.13-23.88,36.38-26.25l13.44-1.42v-1.9c0-7.43-4.27-12.34-11.7-12.34-6.64,0-11.55,4.11-12.18,11.86l-23.57-.63c.79-17.71,15.97-30.84,36.54-30.84s34.95,13.44,34.95,32.74v25.31c0,8.38.63,18.35,1.74,24.51h-23.72c-.79-3.32-1.11-6.17-1.11-10.44-4.9,7.43-14.23,12.02-24.83,12.02-15.02,0-25.94-8.7-25.94-22.62ZM423.25,236.52c8.86,0,15.97-7.28,15.97-17.24v-2.06l-11.86,1.42c-8.38.95-13.76,3.48-13.76,9.65,0,5.22,3.95,8.22,9.65,8.22Z" fill="#00685e"/>
    <path d="M474.25,171.2h24.36l-.47,14.87c3.8-10.28,12.18-16.61,24.2-16.61,17.08,0,29.26,13.29,29.26,32.42v49.5h-24.36v-45.55c0-10.44-5.22-16.76-13.92-16.76-9.17,0-14.71,6.64-14.71,18.03v44.28h-24.36v-80.19Z" fill="#00685e"/>
    <path d="M590.02,140.67h43.97c34.8,0,58.04,22.14,58.04,55.36s-23.25,55.36-58.04,55.36h-43.97v-110.71ZM633.2,231.14c19.77,0,33.06-14.08,33.06-35.11s-13.29-35.11-33.06-35.11h-17.71v70.22h17.71Z" fill="#00685e"/>
    <path d="M714.5,132.61c8.54,0,14.87,6.48,14.87,14.71s-6.33,14.87-14.87,14.87-14.71-6.33-14.71-14.87,6.48-14.71,14.71-14.71ZM702.32,171.2h24.36v80.19h-24.36v-80.19Z" fill="#00685e"/>
    <path d="M734.44,211.37c0-24.99,17.56-43.18,41.91-43.18,27.52,0,43.81,23.25,39.7,50.93h-56.94c.79,9.33,7.91,16.29,17.71,16.29,7.91,0,14.71-4.59,17.08-11.07l20.72,3.01c-3,14.87-17.87,27.05-38.12,27.05-24.52,0-42.07-18.19-42.07-43.02ZM792.49,200.93c0-7.91-6.64-14.55-16.13-14.55s-15.82,5.85-17.08,14.55h33.21Z" fill="#00685e"/>
    <path d="M822.94,251.39l24.04-.63c.95,8.07,7.91,13.6,17.71,13.6,10.44,0,17.08-6.8,17.08-17.71v-10.44c-4.59,6.64-13.13,10.91-22.77,10.91-21.19,0-37.8-16.29-37.8-39.22s15.97-39.07,37.8-39.07c10.44,0,19.14,4.27,24.04,11.55v-9.17h22.93v71.49c0,25.78-15.5,41.12-41.28,41.12-23.88,0-40.65-13.13-41.75-32.42ZM864.38,227.03c10.75,0,18.98-8.22,18.98-19.14s-8.22-18.98-18.98-18.98-18.98,8.38-18.98,18.98,8.38,19.14,18.98,19.14Z" fill="#00685e"/>
    <path d="M914.12,211.37c0-24.83,18.03-42.55,42.86-42.55s43.02,17.71,43.02,42.55-18.03,42.39-43.02,42.39-42.86-17.71-42.86-42.39ZM956.98,233.2c10.91,0,18.51-9.01,18.51-21.83s-7.59-21.98-18.51-21.98-18.35,9.01-18.35,21.98,7.59,21.83,18.35,21.83Z" fill="#00685e"/>
  </g>
  <g>
    <path d="M215.51,276.4h74.34v20.24h-48.71v26.73h45.55v19.77h-45.55v43.97h-25.62v-110.71Z" fill="#00685e"/>
    <path d="M293.49,347.1c0-24.83,18.03-42.54,42.86-42.54s43.02,17.71,43.02,42.54-18.03,42.39-43.02,42.39-42.86-17.71-42.86-42.39ZM336.35,368.93c10.91,0,18.51-9.01,18.51-21.83s-7.59-21.98-18.51-21.98-18.35,9.02-18.35,21.98,7.59,21.83,18.35,21.83Z" fill="#00685e"/>
    <path d="M424.17,369.24c8.7,0,13.92-6.64,13.92-18.03v-44.28h24.36v80.19h-24.36l.32-9.96c-4.74,7.43-12.65,11.7-22.93,11.7-16.92,0-28.78-12.81-28.78-31.16v-50.77h24.36v45.55c0,10.6,4.9,16.77,13.13,16.77Z" fill="#00685e"/>
    <path d="M474.1,306.93h24.36l-.47,14.87c3.8-10.28,12.18-16.61,24.2-16.61,17.08,0,29.26,13.29,29.26,32.42v49.5h-24.36v-45.55c0-10.44-5.22-16.76-13.92-16.76-9.17,0-14.71,6.64-14.71,18.03v44.29h-24.36v-80.19Z" fill="#00685e"/>
    <path d="M559.23,347.1c0-24.67,15.18-41.91,36.54-41.91,9.96,0,18.19,3.8,23.88,10.44v-39.22h24.36v110.71h-24.36v-8.7c-5.69,6.64-13.92,10.44-23.88,10.44-21.35,0-36.54-17.24-36.54-41.75ZM602.41,368.77c10.91,0,18.66-9.01,18.66-21.67s-7.75-21.83-18.66-21.83-18.66,9.17-18.66,21.83,7.91,21.67,18.66,21.67Z" fill="#00685e"/>
    <path d="M652.29,366.08c0-15.03,13.13-23.88,36.38-26.25l13.44-1.42v-1.9c0-7.43-4.27-12.34-11.7-12.34-6.64,0-11.55,4.11-12.18,11.86l-23.57-.63c.79-17.71,15.97-30.84,36.53-30.84s34.95,13.44,34.95,32.74v25.31c0,8.38.63,18.35,1.74,24.51h-23.72c-.79-3.32-1.11-6.17-1.11-10.44-4.9,7.43-14.23,12.02-24.83,12.02-15.03,0-25.94-8.7-25.94-22.62ZM686.3,372.25c8.86,0,15.97-7.28,15.97-17.24v-2.05l-11.86,1.42c-8.38.95-13.76,3.48-13.76,9.65,0,5.22,3.95,8.22,9.65,8.22Z" fill="#00685e"/>
    <path d="M744.08,358.17v-31h-13.44v-20.24h13.44v-20.24h24.36v20.24h17.87v20.24h-17.87v29.1c0,11.23,7.59,12.02,15.5,10.12v20.24c-19.45,4.74-39.86-.95-39.86-28.47Z" fill="#00685e"/>
    <path d="M806.68,268.34c8.54,0,14.87,6.49,14.87,14.71s-6.33,14.87-14.87,14.87-14.71-6.33-14.71-14.87,6.48-14.71,14.71-14.71ZM794.5,306.93h24.36v80.19h-24.36v-80.19Z" fill="#00685e"/>
    <path d="M826.62,347.1c0-24.83,18.03-42.54,42.86-42.54s43.02,17.71,43.02,42.54-18.03,42.39-43.02,42.39-42.86-17.71-42.86-42.39ZM869.48,368.93c10.91,0,18.51-9.01,18.51-21.83s-7.59-21.98-18.51-21.98-18.35,9.02-18.35,21.98,7.59,21.83,18.35,21.83Z" fill="#00685e"/>
    <path d="M920.66,306.93h24.36l-.47,14.87c3.8-10.28,12.18-16.61,24.2-16.61,17.08,0,29.26,13.29,29.26,32.42v49.5h-24.36v-45.55c0-10.44-5.22-16.76-13.92-16.76-9.17,0-14.71,6.64-14.71,18.03v44.29h-24.36v-80.19Z" fill="#00685e"/>
  </g>
  <path d="M92.72,125.68c0-16.74,13.44-30.31,30.01-30.3,16.57,0,29.99,13.58,29.99,30.33,0,16.74-13.44,30.31-30.01,30.3-16.57,0-29.99-13.58-29.99-30.33" fill="#00685e"/>
  <path d="M92.72,251.39h60v-51.81c0-16.74-13.42-30.32-29.99-30.33-16.57,0-30,13.56-30.01,30.31v51.83Z" fill="#ea5148"/>
  <path d="M152.72,0h-60v51.81c0,16.74,13.42,30.32,29.99,30.33,16.57,0,30-13.56,30.01-30.31V0Z" fill="#6f77cc"/>
  <path d="M30,36.59L0,89.1l44.4,25.91c14.35,8.38,32.69,3.42,40.98-11.08,8.29-14.5,3.38-33.04-10.97-41.41l-44.42-25.92Z" fill="#faa647"/>
  <path d="M0,162.29l30,52.51,44.4-25.91c14.35-8.37,19.28-26.9,11-41.41-8.28-14.5-26.63-19.48-40.98-11.11L0,162.29Z" fill="#00aca0"/>
  <path d="M215.44,214.79l30-52.51-44.4-25.91c-14.35-8.38-32.7-3.42-40.99,11.08-8.29,14.5-3.38,33.04,10.97,41.42l44.42,25.92Z" fill="#32b8de"/>
  <path d="M245.44,89.1l-30-52.51-44.4,25.91c-14.35,8.37-19.28,26.91-10.99,41.41,8.28,14.5,26.62,19.48,40.98,11.11l44.42-25.92Z" fill="#9dd354"/>
</svg>